<?xml version="1.0" standalone="no"?>
<!DOCTYPE svg PUBLIC "-//W3C//DTD SVG 20010904//EN"
 "http://www.w3.org/TR/2001/REC-SVG-20010904/DTD/svg10.dtd">
<svg version="1.0" xmlns="http://www.w3.org/2000/svg"
 width="260.000000pt" height="260.000000pt" viewBox="0 0 260.000000 260.000000"
 preserveAspectRatio="xMidYMid meet">
<metadata>
Created by potrace 1.11, written by Peter Selinger 2001-2013
</metadata>
<g transform="translate(0.000000,260.000000) scale(0.100000,-0.100000)"
fill="#000000" stroke="none">
<path d="M1866 992 c-3 -5 1 -9 9 -9 8 0 12 4 9 9 -3 4 -7 8 -9 8 -2 0 -6 -4
-9 -8z"/>
<path d="M1320 726 c0 -2 7 -7 16 -10 8 -3 12 -2 9 4 -6 10 -25 14 -25 6z"/>
<path d="M1681 672 c-7 -13 -6 -19 2 -19 7 0 13 9 13 19 0 10 -1 18 -3 18 -1
0 -7 -8 -12 -18z"/>
<path d="M680 440 c-6 -11 -8 -20 -6 -20 3 0 10 9 16 20 6 11 8 20 6 20 -3 0
-10 -9 -16 -20z"/>
<path d="M1525 401 c-3 -5 -2 -12 3 -15 5 -3 9 1 9 9 0 17 -3 19 -12 6z"/>
<path d="M1084 369 c-4 -7 -3 -9 4 -5 17 10 25 -13 10 -32 -11 -15 -11 -15 3
-5 9 7 19 9 24 5 4 -4 3 3 -4 15 -15 28 -28 36 -37 22z"/>
<path d="M1694 308 c-4 -7 -4 -10 1 -6 4 4 15 2 24 -5 14 -11 14 -10 2 6 -16
20 -18 21 -27 5z"/>
<path d="M1470 306 c0 -2 7 -7 16 -10 8 -3 12 -2 9 4 -6 10 -25 14 -25 6z"/>
<path d="M1164 262 c4 -7 2 -21 -5 -30 -12 -15 -11 -15 6 0 16 15 17 20 6 30
-11 11 -13 10 -7 0z"/>
<path d="M1940 223 c11 -23 10 -23 -65 -23 -58 0 -74 3 -69 13 6 9 4 9 -7 1
-8 -6 -47 -12 -88 -13 -58 -2 -71 0 -65 11 6 10 5 11 -7 1 -22 -18 -423 -18
-413 -1 6 10 5 10 -7 1 -10 -8 -146 -12 -494 -12 -263 -1 -481 -4 -484 -6 -2
-3 485 -5 1084 -5 599 0 1086 3 1083 6 -4 3 -104 5 -224 4 -216 -1 -219 0
-237 22 l-18 23 11 -22z"/>
</g>
</svg>
